<svg id="Layer" 
enable-background="new 0 0 512 512"
 height="512" 
 iewBox="0 0 512 512" width="512" xmlns="http://www.w3.org/2000/svg">
 <path d="m432 216c-13.255 0-24 10.745-24 24 0 83.813-68.187 152-152 152s-152-68.187-152-152c0-13.255-10.745-24-24-24s-24 10.745-24 24c0 102.158 76.995 186.66 176 198.555v49.445c0 13.255 10.745 24 24 24s24-10.745 24-24v-49.445c99.005-11.895 176-96.397 176-198.555 0-13.255-10.745-24-24-24z"/>
 <path d="m256 0c-66.168 0-120 53.832-120 120v112c0 66.168 53.832 120 120 120s120-53.832 120-120v-112c0-66.168-53.832-120-120-120zm0 48c39.701 0 72 32.299 72 72v32h-144v-32c0-39.701 32.299-72 72-72zm0 256c-39.701 0-72-32.299-72-72v-32h144v32c0 39.701-32.299 72-72 72z"/>
 </svg>